<svg width="12" height="12" viewBox="0 0 12 12" fill="none" xmlns="http://www.w3.org/2000/svg">
<path d="M2.79349 3.86044H0.384466C0.27755 3.86044 0.190918 3.94711 0.190918 4.05399V11.7931C0.190918 11.9001 0.27755 11.9867 0.384466 11.9867H2.79349C2.9004 11.9867 2.98703 11.9001 2.98703 11.7931V4.05399C2.98703 3.94711 2.9004 3.86044 2.79349 3.86044Z" fill="black"/>
<path d="M1.58965 0.0131531C0.71311 0.0131531 0 0.725489 0 1.60106C0 2.47702 0.71311 3.18963 1.58965 3.18963C2.4655 3.18963 3.17803 2.47699 3.17803 1.60106C3.17806 0.725489 2.4655 0.0131531 1.58965 0.0131531Z" fill="black"/>
<path d="M8.92087 3.66812C7.95332 3.66812 7.23808 4.08406 6.80426 4.55666V4.05402C6.80426 3.94714 6.71763 3.86047 6.61071 3.86047H4.30366C4.19674 3.86047 4.11011 3.94714 4.11011 4.05402V11.7932C4.11011 11.9001 4.19674 11.9867 4.30366 11.9867H6.70741C6.81433 11.9867 6.90096 11.9001 6.90096 11.7932V7.96409C6.90096 6.67378 7.25144 6.17109 8.1509 6.17109C9.13048 6.17109 9.20833 6.97695 9.20833 8.03047V11.7932C9.20833 11.9001 9.29496 11.9868 9.40188 11.9868H11.8065C11.9134 11.9868 12.0001 11.9001 12.0001 11.7932V7.54815C12.0001 5.6295 11.6342 3.66812 8.92087 3.66812Z" fill="black"/>
</svg>
